<svg width="20" height="20" viewBox="0 0 20 20" fill="none" xmlns="http://www.w3.org/2000/svg">
<rect width="20" height="20" rx="5" fill="#B0CA64"/>
<path d="M14.661 8.31027C14.8482 8.31027 15 8.1585 15 7.97127V6.98838C15 6.80115 14.8482 6.64938 14.661 6.64938H14.113V5.82582C14.113 5.63859 13.9613 5.48682 13.774 5.48682H12.1449C11.9576 5.48682 11.8059 5.63859 11.8059 5.82582V6.64938H8.23936V5.82582C8.23936 5.63859 8.08758 5.48682 7.90035 5.48682H6.27119C6.08396 5.48682 5.93219 5.63859 5.93219 5.82582V6.64938H5.33898C5.15178 6.64938 5 6.80115 5 6.98838V7.97127C5 8.1585 5.15178 8.31027 5.339 8.31027H6.00002V12.8924C5.42621 13.0365 5 13.5566 5 14.1745C5 14.3617 5.15178 14.5135 5.339 14.5135H14.661C14.8482 14.5135 15 14.3617 15 14.1745C15 13.5566 14.5738 13.0365 14 12.8924V8.31027H14.661ZM8.4268 9.29318H7.03492C6.8477 9.29318 6.69592 9.14141 6.69592 8.95418C6.69592 8.76695 6.8477 8.61518 7.03492 8.61518H8.4268C8.61402 8.61518 8.7658 8.76695 8.7658 8.95418C8.7658 9.14141 8.61402 9.29318 8.4268 9.29318ZM12.9918 9.29318H12.6349V9.65012C12.6349 9.83734 12.4831 9.98912 12.2959 9.98912C12.1086 9.98912 11.9569 9.83734 11.9569 9.65012V9.29318H11.5999C11.4127 9.29318 11.2609 9.14141 11.2609 8.95418C11.2609 8.76695 11.4127 8.61518 11.5999 8.61518H11.9569V8.25822C11.9569 8.071 12.1086 7.91922 12.2959 7.91922C12.4831 7.91922 12.6349 8.071 12.6349 8.25822V8.61518H12.9918C13.179 8.61518 13.3308 8.76695 13.3308 8.95418C13.3308 9.14141 13.179 9.29318 12.9918 9.29318Z" fill="black"/>
</svg>
