<svg width="566" height="102" viewBox="0 0 566 102" fill="none" xmlns="http://www.w3.org/2000/svg">
<rect x="267" width="90" height="100" rx="5" fill="#FFB700"/>
<path d="M293.608 100L330.6 17.056L334.952 24.48H284.136L292.072 16.416V39.712H276.584V10.4H346.216V21.536L311.4 100H293.608Z" fill="#1A1A1A"/>
<path d="M39.808 101.28C32.8107 101.28 26.112 100.299 19.712 98.336C13.312 96.288 8.23467 93.6853 4.48 90.528L10.24 77.6C13.824 80.416 18.2613 82.7627 23.552 84.64C28.8427 86.5173 34.2613 87.456 39.808 87.456C44.5013 87.456 48.2987 86.944 51.2 85.92C54.1013 84.896 56.2347 83.5307 57.6 81.824C58.9653 80.032 59.648 78.0267 59.648 75.808C59.648 73.0773 58.6667 70.9013 56.704 69.28C54.7413 67.5733 52.1813 66.2507 49.024 65.312C45.952 64.288 42.496 63.3493 38.656 62.496C34.9013 61.6427 31.104 60.6613 27.264 59.552C23.5093 58.3573 20.0533 56.864 16.896 55.072C13.824 53.1947 11.3067 50.72 9.344 47.648C7.38133 44.576 6.4 40.6507 6.4 35.872C6.4 31.008 7.68 26.5707 10.24 22.56C12.8853 18.464 16.8533 15.2213 22.144 12.832C27.52 10.3573 34.304 9.12 42.496 9.12C47.872 9.12 53.2053 9.80266 58.496 11.168C63.7867 12.5333 68.3947 14.496 72.32 17.056L67.072 29.984C63.0613 27.5947 58.9227 25.8453 54.656 24.736C50.3893 23.5413 46.2933 22.944 42.368 22.944C37.76 22.944 34.0053 23.4987 31.104 24.608C28.288 25.7173 26.1973 27.168 24.832 28.96C23.552 30.752 22.912 32.8 22.912 35.104C22.912 37.8347 23.8507 40.0533 25.728 41.76C27.6907 43.3813 30.208 44.6613 33.28 45.6C36.4373 46.5387 39.936 47.4773 43.776 48.416C47.616 49.2693 51.4133 50.2507 55.168 51.36C59.008 52.4693 62.464 53.92 65.536 55.712C68.6933 57.504 71.2107 59.936 73.088 63.008C75.0507 66.08 76.032 69.9627 76.032 74.656C76.032 79.4347 74.7093 83.872 72.064 87.968C69.504 91.9787 65.536 95.2213 60.16 97.696C54.784 100.085 48 101.28 39.808 101.28ZM79.86 100L120.18 10.4H136.564L177.012 100H159.604L124.916 19.232H131.572L97.012 100H79.86ZM98.42 79.264L102.9 66.208H151.284L155.764 79.264H98.42ZM188.407 100V10.4H205.047V85.92H251.895V100H188.407Z" fill="#1A1A1A"/>
<path d="M440.008 10.4H456.648V100H440.008V10.4ZM393.672 100H377.032V10.4H393.672V100ZM441.288 61.6H392.264V47.392H441.288V61.6ZM467.985 100L508.305 10.4H524.689L565.137 100H547.729L513.041 19.232H519.697L485.137 100H467.985ZM486.545 79.264L491.025 66.208H539.409L543.889 79.264H486.545Z" fill="#1A1A1A"/>
</svg>
