<svg width="100" height="185" viewBox="0 0 100 185" fill="none" xmlns="http://www.w3.org/2000/svg">
<g clip-path="url(#clip0_177_2)">
<path d="M73.1785 10.4025C71.2856 24.4256 71.4527 24.2012 66.1081 25.7718C63.4915 26.5571 59.5388 28.1277 57.2562 29.3056C52.0787 31.9419 53.6375 32.4468 44.0619 25.267L35.8781 19.0407L26.1354 28.8008C20.7909 34.1856 16.7268 39.1218 17.1165 39.7949C17.4506 40.4119 19.8445 43.7214 22.4054 47.143C28.8634 55.7812 28.8077 55.6691 26.7478 59.6516C25.7457 61.6709 24.0199 65.8218 23.0178 68.963L21.1249 74.6283L10.6029 76.3111L0.136475 77.9938V92.0169V106.04L10.6029 107.723L21.1249 109.406L23.0178 115.071C24.0199 118.212 25.69 122.307 26.6921 124.214L28.4737 127.748L21.2919 137.62L14.0545 147.492L23.6858 157.252C29.0304 162.637 33.9295 166.732 34.5976 166.339C35.21 165.947 39.6638 162.693 44.3959 159.104L52.9695 152.541L57.2006 154.672C59.4831 155.85 63.4915 157.477 66.1081 158.262C71.4527 159.833 71.2856 159.608 73.1785 173.631L74.626 184.009H88.7111H102.796L104.188 172.958C105.858 159.552 105.19 160.562 115.378 156.467C119.943 154.672 124.007 153.046 124.341 152.877C124.675 152.709 128.684 155.345 133.193 158.767L141.433 164.993L151.175 155.233C156.52 149.848 160.584 144.912 160.194 144.239C159.86 143.622 157.466 140.256 154.905 136.891C148.447 128.253 148.503 128.365 150.563 124.382C151.565 122.363 153.291 118.212 154.293 115.071L156.186 109.406L166.708 107.723L177.174 106.04V92.0169V77.9938L166.819 76.3111L156.464 74.6283L152.734 65.2048L148.948 55.7812L155.351 47.2552C158.858 42.5434 162.031 38.1682 162.421 37.5512C162.811 36.8781 158.747 31.9419 153.402 26.5571L143.715 16.8531L133.917 24.1451L124.119 31.381L119.999 29.3056C117.772 28.1277 113.819 26.5571 111.203 25.7718C105.858 24.2012 106.025 24.4256 104.132 10.4025L102.685 0.0253448H88.6554H74.626L73.1785 10.4025ZM105.58 54.0985C145.886 72.7211 132.971 132.964 88.6554 132.964C41.3896 132.964 31.647 66.8875 76.7415 52.0791C84.2016 49.6111 97.897 50.6207 105.58 54.0985Z" fill="white"/>
</g>
<g clip-path="url(#clip1_177_2)">
<path d="M89.6955 129.412C110.923 129.412 128.131 112.481 128.131 91.5966C128.131 70.7119 110.923 53.7815 89.6955 53.7815C68.4685 53.7815 51.2605 70.7119 51.2605 91.5966C51.2605 112.481 68.4685 129.412 89.6955 129.412Z" fill="white"/>
</g>
<g clip-path="url(#clip2_177_2)">
<mask id="mask0_177_2" style="mask-type:luminance" maskUnits="userSpaceOnUse" x="44" y="40" width="102" height="102">
<path d="M95.0455 40.3361L44.5378 90.8438L95.0455 141.351L145.553 90.8438L95.0455 40.3361Z" fill="white"/>
</mask>
<g mask="url(#mask0_177_2)">
<path d="M132.409 82.8514H94.9129C92.0286 76.239 85.4359 71.6929 77.6069 71.6929C69.3659 71.6929 62.3612 77.0655 59.6829 84.2979H77.4009V96.6963L59.4768 96.9029C61.9491 104.342 69.1599 109.508 77.4009 109.508C85.2298 109.508 91.8226 104.962 94.707 98.3495H132.203C133.852 98.3495 135.087 97.1096 135.087 95.4565V85.951C135.294 84.0912 133.852 82.6448 132.409 82.8514Z" fill="#0A0E14"/>
</g>
</g>
<defs>
<clipPath id="clip0_177_2">
<rect width="100" height="184.034" fill="white"/>
</clipPath>
<clipPath id="clip1_177_2">
<rect width="48.7395" height="75.6303" fill="white" transform="translate(51.2605 53.7815)"/>
</clipPath>
<clipPath id="clip2_177_2">
<rect width="55.4622" height="101.681" fill="white" transform="translate(44.5378 40.3362)"/>
</clipPath>
</defs>
</svg>
