<svg width="100" height="185" viewBox="0 0 100 185" fill="none" xmlns="http://www.w3.org/2000/svg">
<g clip-path="url(#clip0_9_32)">
<path d="M73.1786 10.4023C71.2857 24.4254 71.4527 24.2011 66.1082 25.7717C63.4916 26.557 59.5389 28.1275 57.2563 29.3055C52.0788 31.9418 53.6376 32.4467 44.062 25.2668L35.8782 19.0406L26.1355 28.8006C20.791 34.1855 16.7269 39.1217 17.1166 39.7948C17.4506 40.4118 19.8445 43.7212 22.4055 47.1429C28.8635 55.7811 28.8078 55.6689 26.7479 59.6515C25.7458 61.6708 24.02 65.8217 23.0179 68.9628L21.125 74.6282L10.603 76.3109L0.136566 77.9937V92.0168V106.04L10.603 107.723L21.125 109.405L23.0179 115.071C24.02 118.212 25.6901 122.307 26.6922 124.214L28.4738 127.748L21.292 137.62L14.0546 147.492L23.6859 157.252C29.0305 162.637 33.9296 166.732 34.5977 166.339C35.2101 165.947 39.6639 162.693 44.396 159.103L52.9695 152.541L57.2006 154.672C59.4832 155.85 63.4916 157.477 66.1082 158.262C71.4527 159.833 71.2857 159.608 73.1786 173.631L74.6261 184.008H88.7111H102.796L104.188 172.958C105.858 159.552 105.19 160.562 115.378 156.467C119.943 154.672 124.007 153.045 124.341 152.877C124.675 152.709 128.684 155.345 133.193 158.767L141.433 164.993L151.175 155.233C156.52 149.848 160.584 144.912 160.194 144.239C159.86 143.622 157.466 140.256 154.905 136.891C148.447 128.253 148.503 128.365 150.563 124.382C151.565 122.363 153.291 118.212 154.293 115.071L156.186 109.405L166.708 107.723L177.174 106.04V92.0168V77.9937L166.819 76.3109L156.464 74.6282L152.734 65.2046L148.949 55.7811L155.351 47.2551C158.858 42.5433 162.032 38.1681 162.421 37.5511C162.811 36.878 158.747 31.9418 153.402 26.557L143.715 16.853L133.917 24.145L124.119 31.3809L119.999 29.3055C117.772 28.1275 113.819 26.557 111.203 25.7717C105.858 24.2011 106.025 24.4254 104.132 10.4023L102.685 0.0252283H88.6555H74.6261L73.1786 10.4023ZM105.58 54.0983C145.887 72.721 132.971 132.964 88.6555 132.964C41.3897 132.964 31.6471 66.8874 76.7416 52.079C84.2017 49.6109 97.8971 50.6206 105.58 54.0983Z" fill="#1E3A46"/>
</g>
<g clip-path="url(#clip1_9_32)">
<path d="M89.6955 129.412C110.923 129.412 128.131 112.481 128.131 91.5966C128.131 70.7119 110.923 53.7815 89.6955 53.7815C68.4685 53.7815 51.2605 70.7119 51.2605 91.5966C51.2605 112.481 68.4685 129.412 89.6955 129.412Z" fill="#0B3B46"/>
</g>
<g clip-path="url(#clip2_9_32)">
<mask id="mask0_9_32" style="mask-type:luminance" maskUnits="userSpaceOnUse" x="44" y="40" width="102" height="102">
<path d="M95.0454 40.3362L44.5378 90.8438L95.0454 141.351L145.553 90.8438L95.0454 40.3362Z" fill="white"/>
</mask>
<g mask="url(#mask0_9_32)">
<path d="M132.409 82.8515H94.9129C92.0285 76.2391 85.4358 71.6929 77.6069 71.6929C69.3659 71.6929 62.3611 77.0656 59.6828 84.298H77.4008V96.6964L59.4767 96.903C61.949 104.342 69.1599 109.508 77.4008 109.508C85.2297 109.508 91.8225 104.962 94.7069 98.3495H132.203C133.852 98.3495 135.087 97.1097 135.087 95.4565V85.9511C135.294 84.0913 133.852 82.6449 132.409 82.8515Z" fill="white"/>
</g>
</g>
<defs>
<clipPath id="clip0_9_32">
<rect width="100" height="184.034" fill="white"/>
</clipPath>
<clipPath id="clip1_9_32">
<rect width="48.7395" height="75.6303" fill="white" transform="translate(51.2605 53.7815)"/>
</clipPath>
<clipPath id="clip2_9_32">
<rect width="55.4622" height="101.681" fill="white" transform="translate(44.5378 40.3361)"/>
</clipPath>
</defs>
</svg>
