<svg width="20" height="20" viewBox="0 0 20 20" fill="none" xmlns="http://www.w3.org/2000/svg">
<rect width="20" height="20" fill="#F5D867"/>
<path d="M14.8847 9.94856L14.0126 9.0807C13.9388 9.00725 13.8387 8.96597 13.7343 8.96597C13.6299 8.96597 13.5298 9.00723 13.456 9.0807L13.2369 9.29871L11.3656 7.43655V6.63259C11.3656 6.41627 11.1893 6.24088 10.972 6.24088H10.8464V5.65559H11.0819C11.206 5.65559 11.3229 5.59733 11.3972 5.49835C11.4715 5.39937 11.4946 5.27135 11.4594 5.15288L11.197 4.26948C11.1475 4.10299 10.9938 3.98877 10.8194 3.98877H9.18255C9.00814 3.98877 8.85449 4.10299 8.80506 4.26943L8.54265 5.15283C8.50746 5.2713 8.5305 5.39935 8.60478 5.4983C8.67909 5.59728 8.79597 5.65554 8.92012 5.65554H9.15567V6.24086H9.0563C8.83892 6.24086 8.66267 6.41625 8.66267 6.63256V7.41039L6.76416 9.29963L6.54408 9.08063C6.39039 8.92769 6.14115 8.92769 5.98741 9.08063L5.11529 9.94849C4.96157 10.1014 4.96157 10.3494 5.11529 10.5024L5.33793 10.724C5.18422 10.8769 5.18422 11.1249 5.33793 11.2779C5.41479 11.3544 5.51553 11.3927 5.61624 11.3927C5.71696 11.3927 5.81772 11.3544 5.89456 11.2779L6.27495 11.6565C6.12124 11.8094 6.12124 12.0574 6.27495 12.2104C6.35181 12.2869 6.45255 12.3252 6.55326 12.3252C6.65398 12.3252 6.75474 12.2869 6.83158 12.2104L7.21197 12.5889C7.05826 12.7419 7.05826 12.9899 7.21197 13.1429C7.28883 13.2194 7.38957 13.2576 7.49028 13.2576C7.591 13.2576 7.69176 13.2194 7.76859 13.1429L7.96712 13.3405V15.6199C7.96712 15.8363 8.14335 16.0116 8.36076 16.0116H11.641C11.8584 16.0116 12.0347 15.8363 12.0347 15.6199V13.3385L12.2313 13.1429C12.3081 13.2194 12.4089 13.2576 12.5096 13.2576C12.6103 13.2576 12.7111 13.2194 12.7879 13.1429C12.9416 12.9899 12.9416 12.7419 12.7879 12.5889L13.1683 12.2104C13.2451 12.2869 13.3459 12.3251 13.4466 12.3251C13.5473 12.3251 13.6481 12.2869 13.7249 12.2104C13.8786 12.0575 13.8786 11.8094 13.7249 11.6564L14.1053 11.2779C14.1822 11.3544 14.2829 11.3926 14.3836 11.3926C14.4843 11.3926 14.5851 11.3544 14.6619 11.2779C14.8156 11.125 14.8156 10.877 14.6619 10.724L14.8846 10.5024C15.0385 10.3495 15.0384 10.1015 14.8847 9.94856ZM10.0141 13.0663C9.50839 13.0663 9.0984 12.6583 9.0984 12.155C9.0984 11.6518 9.50836 11.2438 10.0141 11.2438C10.5199 11.2438 10.9298 11.6518 10.9298 12.155C10.9298 12.6583 10.5199 13.0663 10.0141 13.0663ZM12.2962 10.2347C12.1426 10.0818 11.8933 10.0818 11.7396 10.2347C11.5859 10.3877 11.5859 10.6357 11.7396 10.7887L11.5839 10.9436C11.2108 10.4835 10.64 10.1885 10.001 10.1885C9.36147 10.1885 8.79031 10.484 8.4172 10.9447L8.26044 10.7887C8.41416 10.6357 8.41416 10.3877 8.26044 10.2347C8.10675 10.0818 7.85751 10.0818 7.70377 10.2347L7.32338 9.8562C7.33558 9.84406 7.34648 9.83113 7.35672 9.81786L9.10444 8.07867H10.8975L12.6379 9.81063C12.6496 9.82645 12.6622 9.84186 12.6766 9.85616L12.2962 10.2347Z" fill="#0F0F0F"/>
</svg>
