<svg width="157" height="30" viewBox="0 0 157 30" fill="none" xmlns="http://www.w3.org/2000/svg">
<g clip-path="url(#clip0_1384_197)">
<path d="M11.2319 28.3599C9.25762 28.3599 7.3676 28.0839 5.56185 27.5319C3.7561 26.9559 2.32353 26.2239 1.26416 25.3359L2.88934 21.6999C3.90056 22.4919 5.15254 23.1519 6.6453 23.6799C8.13805 24.2079 9.66692 24.4719 11.2319 24.4719C12.5561 24.4719 13.6275 24.3279 14.4461 24.0399C15.2647 23.7519 15.8667 23.3679 16.2519 22.8879C16.6371 22.3839 16.8297 21.8199 16.8297 21.1959C16.8297 20.4279 16.5528 19.8159 15.9991 19.3599C15.4453 18.8799 14.723 18.5079 13.8322 18.2439C12.9654 17.9559 11.9903 17.6919 10.9069 17.4519C9.84749 17.2119 8.77608 16.9359 7.69263 16.6239C6.63326 16.2879 5.65815 15.8679 4.76732 15.3639C3.90056 14.8359 3.19029 14.1399 2.63653 13.2759C2.08277 12.4119 1.80589 11.3079 1.80589 9.96394C1.80589 8.59594 2.16704 7.34794 2.88934 6.21994C3.63571 5.06794 4.75528 4.15594 6.24803 3.48394C7.76486 2.78794 9.67896 2.43994 11.9903 2.43994C13.5071 2.43994 15.0119 2.63194 16.5047 3.01594C17.9974 3.39994 19.2976 3.95194 20.4051 4.67194L18.9244 8.30794C17.7928 7.63594 16.6251 7.14394 15.4212 6.83194C14.2174 6.49594 13.0617 6.32794 11.9542 6.32794C10.6541 6.32794 9.59469 6.48394 8.77608 6.79594C7.98155 7.10794 7.39167 7.51594 7.00645 8.01994C6.6453 8.52394 6.46472 9.09994 6.46472 9.74794C6.46472 10.5159 6.72957 11.1399 7.25925 11.6199C7.81302 12.0759 8.52328 12.4359 9.39004 12.6999C10.2809 12.9639 11.268 13.2279 12.3515 13.4919C13.4349 13.7319 14.5063 14.0079 15.5657 14.3199C16.6492 14.6319 17.6243 15.0399 18.491 15.5439C19.3819 16.0479 20.0921 16.7319 20.6218 17.5959C21.1756 18.4599 21.4525 19.5519 21.4525 20.8719C21.4525 22.2159 21.0793 23.4639 20.3329 24.6159C19.6106 25.7439 18.491 26.6559 16.9742 27.3519C15.4574 28.0239 13.5433 28.3599 11.2319 28.3599ZM22.5325 27.9999L33.9088 2.79994H38.5315L49.9438 27.9999H45.0322L35.245 5.28394H37.123L27.372 27.9999H22.5325ZM27.7692 22.1679L29.0332 18.4959H42.6847L43.9487 22.1679H27.7692ZM53.1589 27.9999V2.79994H57.8539V24.0399H71.072V27.9999H53.1589Z" fill="#1A1A1A"/>
<path d="M121.483 2.7998H126.178V27.9998H121.483V2.7998ZM108.409 27.9998H103.714V2.7998H108.409V27.9998ZM121.844 17.1998H108.012V13.2038H121.844V17.1998ZM129.377 27.9998L140.753 2.7998H145.376L156.788 27.9998H151.876L142.089 5.2838H143.967L134.216 27.9998H129.377ZM134.613 22.1678L135.877 18.4958H149.529L150.793 22.1678H134.613Z" fill="#1A1A1A"/>
<rect x="72.7314" width="26.5847" height="30" rx="2" fill="#FFB700"/>
<path d="M81.004 29.9998L91.4412 6.6718L92.6691 8.7598H78.3315L80.5706 6.4918V13.0438H76.2007V4.7998H95.8472V7.9318L86.024 29.9998H81.004Z" fill="#1A1A1A"/>
</g>
<defs>
<clipPath id="clip0_1384_197">
<rect width="157" height="30" fill="white"/>
</clipPath>
</defs>
</svg>
