<svg width="20" height="20" viewBox="0 0 20 20" fill="none" xmlns="http://www.w3.org/2000/svg">
<rect width="20" height="20" rx="5" fill="#FCDEAE"/>
<path d="M14.1935 10.3226H15V9.03224H14.1935V8.54837H10.3226V8.37884C11.1364 8.29772 11.7742 7.609 11.7742 6.77415V5H8.54838V6.77418C8.54838 7.3424 8.84451 7.84176 9.28968 8.12918L8.6608 8.54837H8.54838C8.28161 8.54837 8.0645 8.76548 8.0645 9.03224V9.19354H7.09678V10.4838H8.0645C8.0645 10.7506 8.28161 10.9677 8.54838 10.9677H9.99998V11.9351C9.99998 11.9434 9.99192 12.7419 9.5161 12.7419V13.0645C10.154 13.0645 10.3226 12.3259 10.3226 11.9355V10.9677H10.7068L12.0084 13.5709L12.1776 13.5346L12.8537 14.2107L13.5008 14.049C13.395 14.2865 13.0513 14.6773 11.9355 14.6773H5V14.9999H11.9355C13.5535 14.9999 13.819 14.2256 13.8624 13.9586L14.3548 13.8356V13.0682L14.5838 13.0191L13.588 10.8064H14.1935V10.3226ZM14.1935 9.35476H14.6774V9.99993H14.1935V9.35476ZM8.06453 10.1612H7.41936V9.51605H8.06453V10.1612ZM9.99998 10.6451H8.54838C8.45933 10.6451 8.38709 10.5729 8.38709 10.4838V9.1935V9.03221C8.38709 8.94333 8.45933 8.87092 8.54838 8.87092H9.99998V10.6451ZM9.99998 8.54837H9.24239L9.62483 8.29335C9.74436 8.33576 9.86951 8.36577 9.99998 8.37884V8.54837ZM10.1613 8.06449C9.44982 8.06449 8.87097 7.48564 8.87097 6.77418V5.32255H11.4516V6.77415C11.4516 7.4856 10.8727 8.06449 10.1613 8.06449ZM14.0322 13.5837L12.9527 13.8536L12.5532 13.4541L14.0322 13.1372V13.5837ZM13.4431 10.4838L13.0503 9.61123L12.7561 9.7435L14.1258 12.7872L12.1852 13.2032L10.9061 10.6451H10.3226V8.87092H13.8709V9.03221V10.3225V10.4838H13.4431Z" fill="#0F0F0F"/>
<path d="M6.77404 9.67725H5.64502V9.99983H6.77404V9.67725Z" fill="#0F0F0F"/>
<path d="M5.32259 9.67725H5V9.99983H5.32259V9.67725Z" fill="#0F0F0F"/>
<path d="M6.88816 9.2407L5.35596 7.7085L5.12786 7.9366L6.66006 9.4688L6.88816 9.2407Z" fill="#0F0F0F"/>
<path d="M5.27536 12.0493L6.88818 10.4365L6.66008 10.2084L5.04726 11.8212L5.27536 12.0493Z" fill="#0F0F0F"/>
<path d="M10.9676 9.19336H10.645V9.51594H10.9676V9.19336Z" fill="#0F0F0F"/>
<path d="M11.6126 9.19336H11.29V9.51594H11.6126V9.19336Z" fill="#0F0F0F"/>
<path d="M5.64534 8.87109H5.32275V9.19368H5.64534V8.87109Z" fill="#0F0F0F"/>
<path d="M5.64534 10.4839H5.32275V10.8065H5.64534V10.4839Z" fill="#0F0F0F"/>
<path d="M11.1288 5.96777H9.19336V6.77424C9.19336 7.30794 9.62738 7.74196 10.1611 7.74196C10.6948 7.74196 11.1288 7.30794 11.1288 6.77424V5.96777ZM10.8062 6.77424C10.8062 7.13005 10.5169 7.41941 10.1611 7.41941C9.80527 7.41941 9.51591 7.13005 9.51591 6.77424V6.29036H10.8062V6.77424Z" fill="#0F0F0F"/>
</svg>
