<svg width="20" height="20" viewBox="0 0 20 20" fill="none" xmlns="http://www.w3.org/2000/svg">
<rect width="20" height="20" rx="5" fill="#FFC5DE"/>
<path d="M10 6.76921C10.8919 6.76921 11.7 7.13053 12.2843 7.71566C12.8687 8.29997 13.2308 9.10807 13.2308 10C13.2308 10.8919 12.8695 11.7 12.2843 12.2843C11.7 12.8687 10.8919 13.2308 10 13.2308C9.10807 13.2308 8.29997 12.8695 7.71566 12.2843C7.13135 11.7 6.76921 10.8919 6.76921 10C6.76921 9.10807 7.13053 8.29997 7.71566 7.71566C8.29997 7.13135 9.10807 6.76921 10 6.76921ZM10 5C11.381 5 12.631 5.5599 13.5352 6.46484C14.4401 7.36979 15 8.61979 15 10C15 11.381 14.4401 12.631 13.5352 13.5352C12.6302 14.4401 11.3802 15 10 15C8.61898 15 7.36898 14.4401 6.46484 13.5352C5.5599 12.631 5 11.381 5 10C5 8.61898 5.5599 7.36898 6.46484 6.46484C7.36898 5.5599 8.61898 5 10 5ZM12.6066 7.39339C11.9393 6.72607 11.0181 6.31348 10 6.31348C8.98193 6.31348 8.06071 6.72607 7.39339 7.39339C6.72607 8.06071 6.31348 8.98193 6.31348 10C6.31348 11.0181 6.72607 11.9393 7.39339 12.6066C8.06071 13.2739 8.98193 13.6865 10 13.6865C11.0181 13.6865 11.9393 13.2739 12.6066 12.6066C13.2739 11.9393 13.6865 11.0181 13.6865 10C13.6865 8.98193 13.2739 8.06071 12.6066 7.39339ZM10.3263 9.61996C10.2433 9.53695 10.1286 9.48568 10 9.48568C9.87223 9.48568 9.75667 9.53695 9.67367 9.61996L9.67285 9.62077C9.58984 9.70378 9.53857 9.81852 9.53857 9.9471C9.53857 10.0749 9.58984 10.1904 9.67285 10.2734L9.67367 10.2743C9.75667 10.3573 9.87142 10.4085 10 10.4085C10.1278 10.4085 10.2433 10.3573 10.3263 10.2743L10.3271 10.2734C10.4102 10.1904 10.4614 10.0749 10.4614 9.9471C10.4606 9.81852 10.4093 9.70378 10.3263 9.61996ZM10.2946 9.1333C10.4142 9.17725 10.5225 9.24642 10.6112 9.33512C10.6413 9.36523 10.6698 9.39779 10.695 9.43278L10.7031 9.43034L12.4137 8.97217C12.2811 8.66048 12.0898 8.37972 11.8538 8.14453C11.4445 7.73519 10.9001 7.46012 10.2938 7.39258V9.11133C10.2954 9.11865 10.2954 9.12598 10.2946 9.1333ZM10.8626 10.0155C10.8512 10.1563 10.8065 10.2881 10.7349 10.4028C10.7389 10.4077 10.7422 10.4134 10.7454 10.4191L11.7277 11.9759C11.7716 11.9377 11.814 11.8978 11.8555 11.8563C12.3299 11.3818 12.6237 10.7251 12.6237 10.0008C12.6237 9.84863 12.6107 9.69971 12.5855 9.55404L10.8626 10.0155ZM10.2547 10.7739C10.1742 10.7992 10.0887 10.8122 10 10.8122C9.92025 10.8122 9.84294 10.8016 9.76888 10.7813L8.81022 12.3397C9.16748 12.522 9.57194 12.6245 10 12.6245C10.4443 12.6245 10.8626 12.5138 11.2297 12.3193L10.2547 10.7739ZM9.27816 10.4232C9.20329 10.3109 9.15446 10.1799 9.13981 10.0399H9.139L7.42269 9.50277C7.39176 9.6639 7.37549 9.82992 7.37549 10C7.37549 10.7243 7.66927 11.381 8.14372 11.8555C8.19499 11.9067 8.2487 11.9564 8.30485 12.0036L9.26514 10.4419C9.27002 10.4362 9.27409 10.4297 9.27816 10.4232ZM9.29037 9.45313C9.31966 9.41162 9.35221 9.37175 9.38884 9.33594C9.47428 9.2513 9.57682 9.18376 9.69076 9.13981C9.68994 9.13086 9.68913 9.12109 9.68913 9.11214V7.39502C9.08854 7.46582 8.54981 7.73926 8.14453 8.14535C7.92074 8.36914 7.73682 8.63363 7.60498 8.9266L9.29037 9.45313Z" fill="#0F0F0F"/>
</svg>
